<svg xmlns="http://www.w3.org/2000/svg" viewBox="0 0 512 512" width="512" height="512">
  <path d="M 223.59961 71.359375 L 154.7207 83.119141 L 154.7207 452.16016 C 167.41404 456.26682 183.0931 459.6269 201.75977 462.24023 C 220.42643 464.85357 238.72063 466.16016 256.64062 466.16016 C 276.80062 466.16016 294.72039 462.9873 310.40039 456.64062 C 326.08039 449.92064 339.33349 440.5873 350.16016 428.64062 C 360.98682 416.69396 369.20078 402.31953 374.80078 385.51953 C 380.40078 368.3462 383.19922 349.30706 383.19922 328.40039 C 383.19922 307.86706 380.96047 289.20039 376.48047 272.40039 C 372.00047 255.60039 365.28031 241.22596 356.32031 229.2793 C 347.73365 216.9593 336.90651 207.62596 323.83984 201.2793 C 310.77318 194.5593 295.6538 191.19922 278.48047 191.19922 C 269.52047 191.19922 260.55961 192.13333 251.59961 194 C 242.63961 195.49333 233.30628 198.48094 223.59961 202.96094 L 223.59961 71.359375 z M 249.29102 271.00391 A 11 11 0 0 1 255.92578 273.45312 L 313.92578 320.45312 A 11.0011 11.0011 0 0 1 313.92578 337.54688 L 255.92578 384.54688 A 11 11 0 0 1 240.45312 382.92578 A 11 11 0 0 1 242.07422 367.45312 L 289.52734 329 L 242.07422 290.54688 A 11 11 0 0 1 240.45312 275.07422 A 11 11 0 0 1 247.85352 271.06055 A 11 11 0 0 1 249.29102 271.00391 z" fill="#1e3a5f"/>
</svg>
