<svg xmlns="http://www.w3.org/2000/svg" viewBox="130 40 1310 440" width="1310" height="440">
  <path d="M 223.59961 71.359375 L 154.7207 83.119141 L 154.7207 452.16016 C 167.41404 456.26682 183.0931 459.6269 201.75977 462.24023 C 220.42643 464.85357 238.72063 466.16016 256.64062 466.16016 C 276.80062 466.16016 294.72039 462.9873 310.40039 456.64062 C 326.08039 449.92064 339.33349 440.5873 350.16016 428.64062 C 360.98682 416.69396 369.20078 402.31953 374.80078 385.51953 C 380.40078 368.3462 383.19922 349.30706 383.19922 328.40039 C 383.19922 307.86706 380.96047 289.20039 376.48047 272.40039 C 372.00047 255.60039 365.28031 241.22596 356.32031 229.2793 C 347.73365 216.9593 336.90651 207.62596 323.83984 201.2793 C 310.77318 194.5593 295.6538 191.19922 278.48047 191.19922 C 269.52047 191.19922 260.55961 192.13333 251.59961 194 C 242.63961 195.49333 233.30628 198.48094 223.59961 202.96094 L 223.59961 71.359375 z M 249.29102 271.00391 A 11 11 0 0 1 255.92578 273.45312 L 313.92578 320.45312 A 11.0011 11.0011 0 0 1 313.92578 337.54688 L 255.92578 384.54688 A 11 11 0 0 1 240.45312 382.92578 A 11 11 0 0 1 242.07422 367.45312 L 289.52734 329 L 242.07422 290.54688 A 11 11 0 0 1 240.45312 275.07422 A 11 11 0 0 1 247.85352 271.06055 A 11 11 0 0 1 249.29102 271.00391 z " fill="#1e3a5f"/>
  <path d="m 661.52,448.8 q -1.68,1.12 -7.84,3.92 -5.6,2.8 -15.12,6.16 -9.52,2.8 -23.52,5.04 -13.44,2.24 -30.8,2.24 -47.6,0 -69.44,-28 -21.84,-28.56 -21.84,-82.88 V 131.84 h -72.8 V 74.72 h 141.68 v 285.6 q 0,26.88 10.64,36.4 10.64,9.52 26.88,9.52 20.72,0 34.72,-5.6 14,-5.6 18.48,-7.28 z M 839.04,121.2 q 0,20.16 -12.88,31.92 -12.88,11.76 -30.8,11.76 -17.92,0 -30.8,-11.76 -12.32,-11.76 -12.32,-31.92 0,-20.72 12.32,-32.48 12.88,-11.76 30.8,-11.76 17.92,0 30.8,11.76 12.88,11.76 12.88,32.48 z m 102.48,327.6 q -21.28,10.08 -40.32,13.44 -18.48,3.92 -34.16,3.92 -26.88,0 -45.36,-7.84 -17.92,-7.84 -29.12,-22.4 -10.64,-15.12 -15.12,-36.4 -4.48,-21.28 -4.48,-48.72 v -96.88 h -72.8 V 196.8 h 141.68 v 162.96 q 0,23.52 8.4,35.28 8.96,11.2 29.12,11.2 9.52,0 22.96,-2.24 13.44,-2.8 30.24,-10.64 z m 53.76,-243.6 q 18.48,-5.04 45.36,-9.52 27.44,-4.48 59.36,-4.48 31.36,0 52.08,8.96 20.72,8.4 32.48,24.64 12.32,15.68 17.36,38.08 5.04,21.84 5.04,48.72 V 460 h -68.88 V 320.56 q 0,-36.96 -8.4,-53.2 -8.4,-16.24 -34.16,-16.24 -7.84,0 -15.68,0.56 -7.28,0.56 -15.68,1.68 V 460 h -68.88 z m 349.44,95.76 q 10.08,-11.76 20.16,-24.64 10.64,-13.44 20.16,-27.44 10.08,-14 19.04,-26.88 8.96,-13.44 15.68,-25.2 h 82.88 q -10.08,12.88 -22.96,28 -12.88,15.12 -26.88,30.8 -13.44,15.68 -27.44,30.24 -13.44,14.56 -24.64,26.88 14,13.44 30.24,32.48 16.24,18.48 31.92,38.64 15.68,20.16 28.56,40.32 13.44,20.16 21.28,35.84 h -78.96 q -6.72,-14 -17.92,-31.36 -10.64,-17.92 -22.96,-34.72 -12.32,-17.36 -25.2,-32.48 -12.32,-15.68 -22.96,-25.76 V 460 h -69.44 V 83.12 l 69.44,-11.76 z" fill="#1e3a5f"/>
</svg>
